%TF.GenerationSoftware,KiCad,Pcbnew,(5.1.7)-1*%
%TF.CreationDate,2020-11-11T16:50:08-07:00*%
%TF.ProjectId,transistor_matcher,7472616e-7369-4737-946f-725f6d617463,rev?*%
%TF.SameCoordinates,Original*%
%TF.FileFunction,Soldermask,Top*%
%TF.FilePolarity,Negative*%
%FSLAX46Y46*%
G04 Gerber Fmt 4.6, Leading zero omitted, Abs format (unit mm)*
G04 Created by KiCad (PCBNEW (5.1.7)-1) date 2020-11-11 16:50:08*
%MOMM*%
%LPD*%
G01*
G04 APERTURE LIST*
%ADD10O,1.700000X1.700000*%
%ADD11R,1.700000X1.700000*%
%ADD12R,1.500000X1.500000*%
%ADD13C,1.500000*%
%ADD14O,1.500000X1.500000*%
%ADD15O,1.727200X1.727200*%
%ADD16R,1.727200X1.727200*%
%ADD17O,1.400000X1.400000*%
%ADD18C,1.400000*%
G04 APERTURE END LIST*
D10*
%TO.C,TP2*%
X177215000Y-100938276D03*
D11*
X174675000Y-100938276D03*
%TD*%
D10*
%TO.C,TP1*%
X114985000Y-100938276D03*
D11*
X112445000Y-100938276D03*
%TD*%
D12*
%TO.C,Q4*%
X182295000Y-76808276D03*
D13*
X182295000Y-81888276D03*
X182295000Y-79348276D03*
%TD*%
D12*
%TO.C,Q3*%
X169595000Y-76808276D03*
D13*
X169595000Y-81888276D03*
X169595000Y-79348276D03*
%TD*%
D12*
%TO.C,Q2*%
X120065000Y-76808276D03*
D13*
X120065000Y-81888276D03*
X120065000Y-79348276D03*
%TD*%
D12*
%TO.C,Q1*%
X107365000Y-76808276D03*
D13*
X107365000Y-81888276D03*
X107365000Y-79348276D03*
%TD*%
D14*
%TO.C,D2*%
X146735000Y-111098276D03*
D12*
X146735000Y-103478276D03*
%TD*%
D14*
%TO.C,D1*%
X141655000Y-103478276D03*
D12*
X141655000Y-111098276D03*
%TD*%
D15*
%TO.C,J1*%
X149275000Y-118718276D03*
X149275000Y-121258276D03*
X146735000Y-118718276D03*
X146735000Y-121258276D03*
X144195000Y-118718276D03*
X144195000Y-121258276D03*
X141655000Y-118718276D03*
X141655000Y-121258276D03*
X139115000Y-118718276D03*
D16*
X139115000Y-121258276D03*
%TD*%
D17*
%TO.C,R6*%
X177215000Y-111098276D03*
D18*
X177215000Y-118718276D03*
%TD*%
D17*
%TO.C,R5*%
X174675000Y-111098276D03*
D18*
X174675000Y-118718276D03*
%TD*%
D17*
%TO.C,R4*%
X151815000Y-111098276D03*
D18*
X151815000Y-103478276D03*
%TD*%
D17*
%TO.C,R3*%
X114985000Y-111098276D03*
D18*
X114985000Y-118718276D03*
%TD*%
D17*
%TO.C,R2*%
X112445000Y-111098276D03*
D18*
X112445000Y-118718276D03*
%TD*%
D17*
%TO.C,R1*%
X136575000Y-111098276D03*
D18*
X136575000Y-103478276D03*
%TD*%
M02*
