%TF.GenerationSoftware,KiCad,Pcbnew,(5.1.7)-1*%
%TF.CreationDate,2020-11-11T16:50:08-07:00*%
%TF.ProjectId,transistor_matcher,7472616e-7369-4737-946f-725f6d617463,rev?*%
%TF.SameCoordinates,Original*%
%TF.FileFunction,Copper,L1,Top*%
%TF.FilePolarity,Positive*%
%FSLAX46Y46*%
G04 Gerber Fmt 4.6, Leading zero omitted, Abs format (unit mm)*
G04 Created by KiCad (PCBNEW (5.1.7)-1) date 2020-11-11 16:50:08*
%MOMM*%
%LPD*%
G01*
G04 APERTURE LIST*
%TA.AperFunction,ComponentPad*%
%ADD10O,1.700000X1.700000*%
%TD*%
%TA.AperFunction,ComponentPad*%
%ADD11R,1.700000X1.700000*%
%TD*%
%TA.AperFunction,ComponentPad*%
%ADD12R,1.500000X1.500000*%
%TD*%
%TA.AperFunction,ComponentPad*%
%ADD13C,1.500000*%
%TD*%
%TA.AperFunction,ComponentPad*%
%ADD14O,1.500000X1.500000*%
%TD*%
%TA.AperFunction,ComponentPad*%
%ADD15O,1.727200X1.727200*%
%TD*%
%TA.AperFunction,ComponentPad*%
%ADD16R,1.727200X1.727200*%
%TD*%
%TA.AperFunction,ComponentPad*%
%ADD17O,1.400000X1.400000*%
%TD*%
%TA.AperFunction,ComponentPad*%
%ADD18C,1.400000*%
%TD*%
G04 APERTURE END LIST*
D10*
%TO.P,TP2,2*%
%TO.N,Net-(Q4-Pad3)*%
X177215000Y-100938276D03*
D11*
%TO.P,TP2,1*%
%TO.N,Net-(Q3-Pad3)*%
X174675000Y-100938276D03*
%TD*%
D10*
%TO.P,TP1,2*%
%TO.N,Net-(Q2-Pad3)*%
X114985000Y-100938276D03*
D11*
%TO.P,TP1,1*%
%TO.N,Net-(Q1-Pad3)*%
X112445000Y-100938276D03*
%TD*%
D12*
%TO.P,Q4,1*%
%TO.N,GND*%
X182295000Y-76808276D03*
D13*
%TO.P,Q4,3*%
%TO.N,Net-(Q4-Pad3)*%
X182295000Y-81888276D03*
%TO.P,Q4,2*%
%TO.N,Net-(D2-Pad1)*%
X182295000Y-79348276D03*
%TD*%
D12*
%TO.P,Q3,1*%
%TO.N,GND*%
X169595000Y-76808276D03*
D13*
%TO.P,Q3,3*%
%TO.N,Net-(Q3-Pad3)*%
X169595000Y-81888276D03*
%TO.P,Q3,2*%
%TO.N,Net-(D2-Pad1)*%
X169595000Y-79348276D03*
%TD*%
D12*
%TO.P,Q2,1*%
%TO.N,GND*%
X120065000Y-76808276D03*
D13*
%TO.P,Q2,3*%
%TO.N,Net-(Q2-Pad3)*%
X120065000Y-81888276D03*
%TO.P,Q2,2*%
%TO.N,Net-(D1-Pad2)*%
X120065000Y-79348276D03*
%TD*%
D12*
%TO.P,Q1,1*%
%TO.N,GND*%
X107365000Y-76808276D03*
D13*
%TO.P,Q1,3*%
%TO.N,Net-(Q1-Pad3)*%
X107365000Y-81888276D03*
%TO.P,Q1,2*%
%TO.N,Net-(D1-Pad2)*%
X107365000Y-79348276D03*
%TD*%
D14*
%TO.P,D2,2*%
%TO.N,GND*%
X146735000Y-111098276D03*
D12*
%TO.P,D2,1*%
%TO.N,Net-(D2-Pad1)*%
X146735000Y-103478276D03*
%TD*%
D14*
%TO.P,D1,2*%
%TO.N,Net-(D1-Pad2)*%
X141655000Y-103478276D03*
D12*
%TO.P,D1,1*%
%TO.N,GND*%
X141655000Y-111098276D03*
%TD*%
D15*
%TO.P,J1,10*%
%TO.N,+12V*%
X149275000Y-118718276D03*
%TO.P,J1,9*%
X149275000Y-121258276D03*
%TO.P,J1,8*%
%TO.N,GND*%
X146735000Y-118718276D03*
%TO.P,J1,7*%
X146735000Y-121258276D03*
%TO.P,J1,6*%
X144195000Y-118718276D03*
%TO.P,J1,5*%
X144195000Y-121258276D03*
%TO.P,J1,4*%
X141655000Y-118718276D03*
%TO.P,J1,3*%
X141655000Y-121258276D03*
%TO.P,J1,2*%
%TO.N,-12V*%
X139115000Y-118718276D03*
D16*
%TO.P,J1,1*%
X139115000Y-121258276D03*
%TD*%
D17*
%TO.P,R6,2*%
%TO.N,Net-(Q4-Pad3)*%
X177215000Y-111098276D03*
D18*
%TO.P,R6,1*%
%TO.N,+12V*%
X177215000Y-118718276D03*
%TD*%
D17*
%TO.P,R5,2*%
%TO.N,Net-(Q3-Pad3)*%
X174675000Y-111098276D03*
D18*
%TO.P,R5,1*%
%TO.N,+12V*%
X174675000Y-118718276D03*
%TD*%
D17*
%TO.P,R4,2*%
%TO.N,-12V*%
X151815000Y-111098276D03*
D18*
%TO.P,R4,1*%
%TO.N,Net-(D2-Pad1)*%
X151815000Y-103478276D03*
%TD*%
D17*
%TO.P,R3,2*%
%TO.N,Net-(Q2-Pad3)*%
X114985000Y-111098276D03*
D18*
%TO.P,R3,1*%
%TO.N,-12V*%
X114985000Y-118718276D03*
%TD*%
D17*
%TO.P,R2,2*%
%TO.N,Net-(Q1-Pad3)*%
X112445000Y-111098276D03*
D18*
%TO.P,R2,1*%
%TO.N,-12V*%
X112445000Y-118718276D03*
%TD*%
D17*
%TO.P,R1,2*%
%TO.N,+12V*%
X136575000Y-111098276D03*
D18*
%TO.P,R1,1*%
%TO.N,Net-(D1-Pad2)*%
X136575000Y-103478276D03*
%TD*%
M02*
