M48
; DRILL file {KiCad (5.1.7)-1} date 11/11/20 16:48:56
; FORMAT={-:-/ absolute / inch / decimal}
; #@! TF.CreationDate,2020-11-11T16:48:56-07:00
; #@! TF.GenerationSoftware,Kicad,Pcbnew,(5.1.7)-1
; #@! TF.FileFunction,Plated,1,2,PTH
FMAT,2
INCH
T1C0.0276
T2C0.0295
T3C0.0315
T4C0.0394
T5C0.0400
%
G90
G05
T1
X5.377Y-4.3739
X4.527Y-4.3739
X4.527Y-4.6739
X6.877Y-4.3739
X4.427Y-4.3739
X4.427Y-4.6739
X6.977Y-4.3739
X6.977Y-4.6739
X5.377Y-4.0739
X5.977Y-4.0739
X5.977Y-4.3739
X6.877Y-4.6739
T2
X5.577Y-4.0739
X5.577Y-4.3739
X5.777Y-4.0739
X5.777Y-4.3739
T3
X4.227Y-3.0239
X4.227Y-3.1239
X4.227Y-3.2239
X6.677Y-3.0239
X6.677Y-3.1239
X6.677Y-3.2239
X7.177Y-3.0239
X7.177Y-3.1239
X7.177Y-3.2239
X4.727Y-3.0239
X4.727Y-3.1239
X4.727Y-3.2239
T4
X4.427Y-3.9739
X4.527Y-3.9739
X6.877Y-3.9739
X6.977Y-3.9739
T5
X5.477Y-4.6739
X5.477Y-4.7739
X5.577Y-4.6739
X5.577Y-4.7739
X5.677Y-4.6739
X5.677Y-4.7739
X5.777Y-4.6739
X5.777Y-4.7739
X5.877Y-4.6739
X5.877Y-4.7739
T0
M30
